<svg xmlns="http://www.w3.org/2000/svg" xmlns:xlink="http://www.w3.org/1999/xlink" width="1000" zoomAndPan="magnify" viewBox="0 0 750 749.999995" height="1000" preserveAspectRatio="xMidYMid meet" version="1.0"><defs><filter x="0%" y="0%" width="100%" height="100%" id="c2bc39430e"><feColorMatrix values="0 0 0 0 1 0 0 0 0 1 0 0 0 0 1 0 0 0 1 0" color-interpolation-filters="sRGB"/></filter><clipPath id="9a5e0d9d5b"><path d="M 65.226562 112.457031 L 684.726562 112.457031 L 684.726562 637.457031 L 65.226562 637.457031 Z M 65.226562 112.457031 " clip-rule="nonzero"/></clipPath><clipPath id="cc0a5a3387"><path d="M 0.226562 0.457031 L 619.726562 0.457031 L 619.726562 525.457031 L 0.226562 525.457031 Z M 0.226562 0.457031 " clip-rule="nonzero"/></clipPath><clipPath id="6cc0ca30fd"><path d="M 0.226562 0.457031 L 619.726562 0.457031 L 619.726562 525.457031 L 0.226562 525.457031 Z M 0.226562 0.457031 " clip-rule="nonzero"/></clipPath><linearGradient x1="351.965904" gradientTransform="matrix(0.743697, 0, 0, 0.743623, 0.22676, 0.456018)" y1="-36.411684" x2="433.047813" gradientUnits="userSpaceOnUse" y2="747.375838" id="97ee6fe942"><stop stop-opacity="1" stop-color="rgb(44.709778%, 19.60907%, 58.428955%)" offset="0"/><stop stop-opacity="1" stop-color="rgb(44.709778%, 19.60907%, 58.428955%)" offset="0.10878"/><stop stop-opacity="1" stop-color="rgb(44.709778%, 19.60907%, 58.428955%)" offset="0.25"/><stop stop-opacity="1" stop-color="rgb(44.709778%, 19.60907%, 58.428955%)" offset="0.375"/><stop stop-opacity="1" stop-color="rgb(44.709778%, 19.60907%, 58.428955%)" offset="0.40625"/><stop stop-opacity="1" stop-color="rgb(44.709778%, 19.60907%, 58.428955%)" offset="0.421875"/><stop stop-opacity="1" stop-color="rgb(44.288635%, 20.240784%, 58.569336%)" offset="0.425781"/><stop stop-opacity="1" stop-color="rgb(43.867493%, 20.872498%, 58.709717%)" offset="0.429688"/><stop stop-opacity="1" stop-color="rgb(42.921448%, 22.291565%, 59.025574%)" offset="0.433594"/><stop stop-opacity="1" stop-color="rgb(41.975403%, 23.710632%, 59.341431%)" offset="0.4375"/><stop stop-opacity="1" stop-color="rgb(41.029358%, 25.128174%, 59.655762%)" offset="0.441406"/><stop stop-opacity="1" stop-color="rgb(40.083313%, 26.547241%, 59.971619%)" offset="0.445313"/><stop stop-opacity="1" stop-color="rgb(39.137268%, 27.966309%, 60.287476%)" offset="0.449219"/><stop stop-opacity="1" stop-color="rgb(38.191223%, 29.385376%, 60.603333%)" offset="0.453125"/><stop stop-opacity="1" stop-color="rgb(37.245178%, 30.804443%, 60.917664%)" offset="0.457031"/><stop stop-opacity="1" stop-color="rgb(36.299133%, 32.223511%, 61.233521%)" offset="0.460938"/><stop stop-opacity="1" stop-color="rgb(35.353088%, 33.641052%, 61.547852%)" offset="0.464844"/><stop stop-opacity="1" stop-color="rgb(34.407043%, 35.06012%, 61.863708%)" offset="0.46875"/><stop stop-opacity="1" stop-color="rgb(33.460999%, 36.479187%, 62.179565%)" offset="0.472656"/><stop stop-opacity="1" stop-color="rgb(32.514954%, 37.898254%, 62.495422%)" offset="0.476562"/><stop stop-opacity="1" stop-color="rgb(31.568909%, 39.315796%, 62.809753%)" offset="0.480469"/><stop stop-opacity="1" stop-color="rgb(30.622864%, 40.734863%, 63.12561%)" offset="0.484375"/><stop stop-opacity="1" stop-color="rgb(29.676819%, 42.153931%, 63.441467%)" offset="0.488281"/><stop stop-opacity="1" stop-color="rgb(28.730774%, 43.572998%, 63.757324%)" offset="0.492188"/><stop stop-opacity="1" stop-color="rgb(27.784729%, 44.992065%, 64.071655%)" offset="0.496094"/><stop stop-opacity="1" stop-color="rgb(26.838684%, 46.411133%, 64.387512%)" offset="0.5"/><stop stop-opacity="1" stop-color="rgb(25.892639%, 47.828674%, 64.703369%)" offset="0.503906"/><stop stop-opacity="1" stop-color="rgb(24.946594%, 49.247742%, 65.019226%)" offset="0.507812"/><stop stop-opacity="1" stop-color="rgb(24.000549%, 50.666809%, 65.333557%)" offset="0.511719"/><stop stop-opacity="1" stop-color="rgb(23.054504%, 52.085876%, 65.649414%)" offset="0.515625"/><stop stop-opacity="1" stop-color="rgb(22.108459%, 53.503418%, 65.965271%)" offset="0.519531"/><stop stop-opacity="1" stop-color="rgb(21.162415%, 54.922485%, 66.281128%)" offset="0.523438"/><stop stop-opacity="1" stop-color="rgb(20.21637%, 56.341553%, 66.595459%)" offset="0.527344"/><stop stop-opacity="1" stop-color="rgb(19.270325%, 57.76062%, 66.911316%)" offset="0.53125"/><stop stop-opacity="1" stop-color="rgb(18.32428%, 59.179688%, 67.225647%)" offset="0.535156"/><stop stop-opacity="1" stop-color="rgb(17.378235%, 60.598755%, 67.541504%)" offset="0.539062"/><stop stop-opacity="1" stop-color="rgb(16.43219%, 62.016296%, 67.857361%)" offset="0.542969"/><stop stop-opacity="1" stop-color="rgb(15.486145%, 63.435364%, 68.173218%)" offset="0.546875"/><stop stop-opacity="1" stop-color="rgb(14.5401%, 64.854431%, 68.487549%)" offset="0.550781"/><stop stop-opacity="1" stop-color="rgb(13.594055%, 66.273499%, 68.803406%)" offset="0.554688"/><stop stop-opacity="1" stop-color="rgb(12.64801%, 67.69104%, 69.119263%)" offset="0.558594"/><stop stop-opacity="1" stop-color="rgb(11.701965%, 69.110107%, 69.43512%)" offset="0.5625"/><stop stop-opacity="1" stop-color="rgb(10.75592%, 70.529175%, 69.749451%)" offset="0.566406"/><stop stop-opacity="1" stop-color="rgb(9.809875%, 71.948242%, 70.065308%)" offset="0.570312"/><stop stop-opacity="1" stop-color="rgb(9.608459%, 72.24884%, 70.132446%)" offset="0.574219"/><stop stop-opacity="1" stop-color="rgb(9.408569%, 72.549438%, 70.199585%)" offset="0.578125"/><stop stop-opacity="1" stop-color="rgb(9.408569%, 72.549438%, 70.199585%)" offset="0.59375"/><stop stop-opacity="1" stop-color="rgb(9.408569%, 72.549438%, 70.199585%)" offset="0.625"/><stop stop-opacity="1" stop-color="rgb(9.408569%, 72.549438%, 70.199585%)" offset="0.75"/><stop stop-opacity="1" stop-color="rgb(9.408569%, 72.549438%, 70.199585%)" offset="0.89122"/><stop stop-opacity="1" stop-color="rgb(9.408569%, 72.549438%, 70.199585%)" offset="1"/></linearGradient><clipPath id="e3d0298621"><rect x="0" width="620" y="0" height="526"/></clipPath><clipPath id="357f7b9257"><path d="M 0.226562 0.457031 L 619.726562 0.457031 L 619.726562 525.457031 L 0.226562 525.457031 Z M 0.226562 0.457031 " clip-rule="nonzero"/></clipPath><clipPath id="0cde471174"><path d="M 0.226562 0.457031 L 619.726562 0.457031 L 619.726562 525.453125 L 0.226562 525.453125 Z M 0.226562 0.457031 " clip-rule="nonzero"/></clipPath><clipPath id="53004b37b5"><path d="M 60 103 L 440 103 L 440 525.453125 L 60 525.453125 Z M 60 103 " clip-rule="nonzero"/></clipPath><clipPath id="7101ca7ade"><rect x="0" width="620" y="0" height="526"/></clipPath><clipPath id="7bee8672a5"><rect x="0" width="620" y="0" height="526"/></clipPath><mask id="e76ea44612"><g filter="url(#c2bc39430e)"><g transform="matrix(1, 0, 0, 1, -0.000000000000014211, -0.000000000000071054)"><g clip-path="url(#7bee8672a5)"><g clip-path="url(#357f7b9257)"><g transform="matrix(1, 0, 0, 1, -0.000000000000014211, -0.000000000000071054)"><g clip-path="url(#7101ca7ade)"><g clip-path="url(#0cde471174)"><path fill="#723295" d="M 37.644531 230.476562 C 61.554688 261.042969 111.792969 303.839844 137.429688 320.957031 L 165.496094 237.8125 L 122.878906 186.460938 L 163.417969 137.550781 C 182.128906 113.097656 214.695312 84.566406 229.941406 73.96875 C 253.222656 57.339844 290.921875 52.367188 306.859375 51.960938 C 326.816406 50.003906 356.75 58.484375 369.222656 62.964844 C 404.980469 79.59375 431.242188 106.574219 439.90625 117.988281 L 497.074219 186.460938 L 455.496094 235.367188 C 432.628906 262.265625 404.566406 290.390625 385.855469 301.394531 C 367.144531 312.398438 347.394531 318.511719 322.449219 320.957031 C 302.289062 322.933594 271.171875 316.882812 258.003906 312.398438 L 239.296875 363.75 C 263.410156 371.578125 306.164062 372.71875 324.527344 372.3125 C 360.285156 370.355469 390.707031 361.714844 401.445312 357.636719 L 459.65625 525.148438 L 555.28125 525.148438 L 483.5625 322.179688 C 503.519531 309.464844 546.621094 268.789062 565.675781 250.039062 L 619.726562 186.460938 C 606.90625 170.5625 578.574219 136.828125 569.835938 126.546875 C 561.519531 116.765625 534.492188 89.816406 519.941406 78.859375 C 468.5 40.132812 434.367188 27.835938 423.597656 23.957031 L 423.273438 23.839844 C 371.71875 5.253906 328.339844 0.609375 313.09375 0.609375 C 271.519531 -1.347656 213.308594 16.09375 189.402344 25.0625 C 149.488281 36.800781 88.578125 84.976562 64.671875 111.875 L 0.226562 186.460938 Z M 37.644531 230.476562 " fill-opacity="1" fill-rule="nonzero"/></g><g clip-path="url(#53004b37b5)"><path fill="#18b9b3" d="M 60.515625 525.453125 L 154.0625 525.453125 L 176.929688 465.542969 L 235.136719 298.03125 L 279.832031 170.871094 C 300.621094 134.1875 326.609375 157.417969 331.804688 170.871094 L 370.265625 278.46875 C 409.761719 255.234375 422.234375 230.375 439.90625 209.996094 C 439.074219 198.257812 419.464844 169.238281 409.761719 156.195312 C 402.484375 147.230469 382.320312 126.363281 359.871094 114.625 C 337.417969 102.886719 303.394531 102.398438 289.1875 103.621094 C 277.40625 104.84375 248.027344 113.890625 220.585938 135.410156 C 193.144531 156.929688 172.773438 205.917969 166.535156 228.335938 Z M 60.515625 525.453125 " fill-opacity="1" fill-rule="nonzero"/></g></g></g></g></g></g></g></mask><clipPath id="f390417ccb"><path d="M 0.226562 0.457031 L 619.726562 0.457031 L 619.726562 525.457031 L 0.226562 525.457031 Z M 0.226562 0.457031 " clip-rule="nonzero"/></clipPath><clipPath id="cff45f269a"><rect x="0" width="620" y="0" height="526"/></clipPath><clipPath id="a3680e6427"><rect x="0" width="620" y="0" height="526"/></clipPath></defs><g clip-path="url(#9a5e0d9d5b)"><g transform="matrix(1, 0, 0, 1, 65, 112)"><g clip-path="url(#a3680e6427)"><g clip-path="url(#cc0a5a3387)"><g mask="url(#e76ea44612)"><g transform="matrix(1, 0, 0, 1, -0.000000000000014211, -0.000000000000071054)"><g clip-path="url(#cff45f269a)"><g clip-path="url(#f390417ccb)"><path fill="url(#97ee6fe942)" d="M 0.226562 0.457031 L 0.226562 525.457031 L 619.726562 525.457031 L 619.726562 0.457031 Z M 0.226562 0.457031 " fill-rule="nonzero"/></g></g></g></g></g></g></g></g></svg>